HIERARCHY
ROOT hip
{
	OFFSET 0.000000 0.000000 0.000000
	CHANNELS 6 Xposition Yposition Zposition Xrotation Zrotation Yrotation 
	JOINT abdomen
	{
		OFFSET 0.000000 3.422050 0.000000
		CHANNELS 3 Xrotation Zrotation Yrotation 
		JOINT chest
		{
			OFFSET 0.000000 8.486693 -0.6844110
			CHANNELS 3 Xrotation Zrotation Yrotation 
			JOINT neck
			{
				OFFSET 0.000000 10.26616 -0.2737640
				CHANNELS 3 Xrotation Zrotation Yrotation 
				JOINT head
				{
					OFFSET 0.000000 3.148285 0.000000
					CHANNELS 3 Xrotation Zrotation Yrotation 
					End Site
					{
						OFFSET 0.000000 3.148289 0.000000
					}
				}
			}
			JOINT lCollar
			{
				OFFSET 3.422053 6.707223 -0.8212930
				CHANNELS 3 Yrotation Zrotation Xrotation 
				JOINT lShldr
				{
					OFFSET 3.285171 0.000000 0.000000
					CHANNELS 3 Zrotation Yrotation Xrotation 
					JOINT lForeArm
					{
						OFFSET 10.12928 0.000000 0.000000
						CHANNELS 3 Yrotation Zrotation Xrotation 
						JOINT lHand
						{
							OFFSET 8.486692 0.000000 0.000000
							CHANNELS 3 Zrotation Yrotation Xrotation 
							End Site
							{
								OFFSET 4.106464 0.000000 0.000000
							}
						}
					}
				}
			}
			JOINT rCollar
			{
				OFFSET -3.558935 6.707223 -0.8212930
				CHANNELS 3 Yrotation Zrotation Xrotation 
				JOINT rShldr
				{
					OFFSET -3.148289 0.000000 0.000000
					CHANNELS 3 Zrotation Yrotation Xrotation 
					JOINT rForeArm
					{
						OFFSET -10.26616 0.000000 0.000000
						CHANNELS 3 Yrotation Zrotation Xrotation 
						JOINT rHand
						{
							OFFSET -8.349810 0.000000 0.000000
							CHANNELS 3 Zrotation Yrotation Xrotation 
							End Site
							{
								OFFSET -4.106464 0.000000 0.000000
							}
						}
					}
				}
			}
		}
	}
	JOINT lThigh
	{
		OFFSET 5.338403 -1.642589 1.368821
		CHANNELS 3 Xrotation Zrotation Yrotation 
		JOINT lShin
		{
			OFFSET -2.053232 -20.12167 0.000000
			CHANNELS 3 Xrotation Zrotation Yrotation 
			JOINT lFoot
			{
				OFFSET 0.000000 -19.30038 -1.231939
				CHANNELS 3 Xrotation Yrotation Zrotation 
				End Site
				{
					OFFSET 0.000000 -2.463878 4.653993
				}
			}
		}
	}
	JOINT rThigh
	{
		OFFSET -5.338403 -1.642589 1.368821
		CHANNELS 3 Xrotation Zrotation Yrotation 
		JOINT rShin
		{
			OFFSET 2.053232 -20.12167 0.000000
			CHANNELS 3 Xrotation Zrotation Yrotation 
			JOINT rFoot
			{
				OFFSET 0.000000 -19.30038 -1.231939
				CHANNELS 3 Xrotation Yrotation Zrotation 
				End Site
				{
					OFFSET 0.000000 -2.463878 4.653993
				}
			}
		}
	}
}
MOTION
Frames:	19
Frame Time:	0.03333333
0.000000 43.31088 0.5333334 1.000000 0.000000 0.000000 0.9833333 0.000000 0.000000 0.5333334 0.000000 0.000000 1.000000 0.000000 0.000000 1.000000 0.000000 0.000000 0.000000 0.000000 1.000000 -68.76667 0.000000 0.000000 -1.066667 0.000000 0.9833333 0.000000 0.000000 -1.033333 0.000000 0.000000 0.9919540 68.76667 0.000000 0.000000 1.066667 0.000000 0.9833333 0.000000 0.000000 -1.033333 0.2666667 10.00000 0.000000 0.9333333 -5.000000 0.000000 -0.2666667 0.4666667 0.000000 -2.066667 -10.00000 0.000000 1.733333 5.000000 0.000000 1.433333 0.000000 0.000000 
0.000000 43.09327 1.066667 1.000000 0.000000 0.000000 0.9666666 0.000000 0.000000 0.06666667 0.000000 0.000000 1.000000 0.000000 0.000000 1.000000 0.000000 0.000000 0.000000 0.000000 1.000000 -65.53333 0.000000 0.000000 -2.133333 0.000000 0.9666666 0.000000 0.000000 -3.066667 0.000000 0.000000 0.9839081 65.53333 0.000000 0.000000 2.133333 0.000000 0.9666666 0.000000 0.000000 -3.066667 0.5333334 10.00000 0.000000 1.866667 -5.000000 0.000000 -1.533333 0.9333333 0.000000 -4.133333 -10.00000 0.000000 3.466667 5.000000 0.000000 1.866667 0.000000 0.000000 
0.000000 42.87565 1.600000 1.000000 0.000000 0.000000 0.9500000 0.000000 0.000000 -0.4000000 0.000000 0.000000 1.000000 0.000000 0.000000 1.000000 0.000000 0.000000 0.000000 0.000000 1.000000 -62.30000 0.000000 0.000000 -3.200000 0.000000 0.9500000 0.000000 0.000000 -5.100000 0.000000 0.000000 0.9758621 62.30000 0.000000 0.000000 3.200000 0.000000 0.9500000 0.000000 0.000000 -5.100000 0.8000000 10.00000 0.000000 2.800000 -5.000000 0.000000 -2.800000 1.400000 0.000000 -6.200000 -10.00000 0.000000 5.200000 5.000000 0.000000 2.300000 0.000000 0.000000 
0.000000 42.65804 2.133333 1.000000 0.000000 0.000000 0.9333333 0.000000 0.000000 -0.8666667 0.000000 0.000000 1.000000 0.000000 0.000000 1.000000 0.000000 0.000000 0.000000 0.000000 1.000000 -59.06667 0.000000 0.000000 -4.266667 0.000000 0.9333333 0.000000 0.000000 -7.133333 0.000000 0.000000 0.9678161 59.06667 0.000000 0.000000 4.266667 0.000000 0.9333333 0.000000 0.000000 -7.133333 1.066667 10.00000 0.000000 3.733333 -5.000000 0.000000 -4.066667 1.866667 0.000000 -8.266666 -10.00000 0.000000 6.933333 5.000000 0.000000 2.733333 0.000000 0.000000 
0.000000 42.44042 2.666667 1.000000 0.000000 0.000000 0.9166667 0.000000 0.000000 -1.333333 0.000000 0.000000 1.000000 0.000000 0.000000 1.000000 0.000000 0.000000 0.000000 0.000000 1.000000 -55.83333 0.000000 0.000000 -5.333333 0.000000 0.9166667 0.000000 0.000000 -9.166667 0.000000 0.000000 0.9597701 55.83333 0.000000 0.000000 5.333333 0.000000 0.9166667 0.000000 0.000000 -9.166667 1.333333 10.00000 0.000000 4.666667 -5.000000 0.000000 -5.333333 2.333333 0.000000 -10.33333 -10.00000 0.000000 8.666667 5.000000 0.000000 3.166667 0.000000 0.000000 
0.000000 42.22280 3.200000 1.000000 0.000000 0.000000 0.9000000 0.000000 0.000000 -1.800000 0.000000 0.000000 1.000000 0.000000 0.000000 1.000000 0.000000 0.000000 0.000000 0.000000 1.000000 -52.60000 0.000000 0.000000 -6.400000 0.000000 0.9000000 0.000000 0.000000 -11.20000 0.000000 0.000000 0.9517242 52.60000 0.000000 0.000000 6.400000 0.000000 0.9000000 0.000000 0.000000 -11.20000 1.600000 10.00000 0.000000 5.600000 -5.000000 0.000000 -6.600000 2.800000 0.000000 -12.40000 -10.00000 0.000000 10.40000 5.000000 0.000000 3.600000 0.000000 0.000000 
0.000000 42.00518 3.733333 1.000000 0.000000 0.000000 0.8833333 0.000000 0.000000 -2.266667 0.000000 0.000000 1.000000 0.000000 0.000000 1.000000 0.000000 0.000000 0.000000 0.000000 1.000000 -49.36666 0.000000 0.000000 -7.466667 0.000000 0.8833333 0.000000 0.000000 -13.23333 0.000000 0.000000 0.9436782 49.36666 0.000000 0.000000 7.466667 0.000000 0.8833333 0.000000 0.000000 -13.23333 1.866667 10.00000 0.000000 6.533333 -5.000000 0.000000 -7.866667 3.266667 0.000000 -14.46667 -10.00000 0.000000 12.13333 5.000000 0.000000 4.033333 0.000000 0.000000 
0.000000 41.78757 4.266667 1.000000 0.000000 0.000000 0.8666667 0.000000 0.000000 -2.733333 0.000000 0.000000 1.000000 0.000000 0.000000 1.000000 0.000000 0.000000 0.000000 0.000000 1.000000 -46.13334 0.000000 0.000000 -8.533334 0.000000 0.8666667 0.000000 0.000000 -15.26667 0.000000 0.000000 0.9356322 46.13334 0.000000 0.000000 8.533334 0.000000 0.8666667 0.000000 0.000000 -15.26667 2.133333 10.00000 0.000000 7.466667 -5.000000 0.000000 -9.133333 3.733333 0.000000 -16.53333 -10.00000 0.000000 13.86667 5.000000 0.000000 4.466667 0.000000 0.000000 
0.000000 41.56995 4.800000 1.000000 0.000000 0.000000 0.8500000 0.000000 0.000000 -3.200000 0.000000 0.000000 1.000000 0.000000 0.000000 1.000000 0.000000 0.000000 0.000000 0.000000 1.000000 -42.90000 0.000000 0.000000 -9.600000 0.000000 0.8500000 0.000000 0.000000 -17.30000 0.000000 0.000000 0.9275862 42.90000 0.000000 0.000000 9.600000 0.000000 0.8500000 0.000000 0.000000 -17.30000 2.400000 10.00000 0.000000 8.400000 -5.000000 0.000000 -10.40000 4.200000 0.000000 -18.60000 -10.00000 0.000000 15.60000 5.000000 0.000000 4.900000 0.000000 0.000000 
0.000000 41.35233 5.333333 1.000000 0.000000 0.000000 0.8333333 0.000000 0.000000 -3.666667 0.000000 0.000000 1.000000 0.000000 0.000000 1.000000 0.000000 0.000000 0.000000 0.000000 1.000000 -39.66667 0.000000 0.000000 -10.66667 0.000000 0.8333333 0.000000 0.000000 -19.33333 0.000000 0.000000 0.9195402 39.66667 0.000000 0.000000 10.66667 0.000000 0.8333333 0.000000 0.000000 -19.33333 2.666667 10.00000 0.000000 9.333333 -5.000000 0.000000 -11.66667 4.666667 0.000000 -20.66667 -10.00000 0.000000 17.33333 5.000000 0.000000 5.333333 0.000000 0.000000 
0.000000 41.13472 5.866667 1.000000 0.000000 0.000000 0.8166667 0.000000 0.000000 -4.133333 0.000000 0.000000 1.000000 0.000000 0.000000 1.000000 0.000000 0.000000 0.000000 0.000000 1.000000 -36.43333 0.000000 0.000000 -11.73333 0.000000 0.8166667 0.000000 0.000000 -21.36667 0.000000 0.000000 0.9114943 36.43333 0.000000 0.000000 11.73333 0.000000 0.8166667 0.000000 0.000000 -21.36667 2.933333 10.00000 0.000000 10.26667 -5.000000 0.000000 -12.93333 5.133333 0.000000 -22.73333 -10.00000 0.000000 19.06667 5.000000 0.000000 5.766667 0.000000 0.000000 
0.000000 40.91710 6.400000 1.000000 0.000000 0.000000 0.8000000 0.000000 0.000000 -4.600000 0.000000 0.000000 1.000000 0.000000 0.000000 1.000000 0.000000 0.000000 0.000000 0.000000 1.000000 -33.20000 0.000000 0.000000 -12.80000 0.000000 0.8000000 0.000000 0.000000 -23.40000 0.000000 0.000000 0.9034483 33.20000 0.000000 0.000000 12.80000 0.000000 0.8000000 0.000000 0.000000 -23.40000 3.200000 10.00000 0.000000 11.20000 -5.000000 0.000000 -14.20000 5.600000 0.000000 -24.80000 -10.00000 0.000000 20.80000 5.000000 0.000000 6.200000 0.000000 0.000000 
0.000000 40.69949 6.933333 1.000000 0.000000 0.000000 0.7833334 0.000000 0.000000 -5.066667 0.000000 0.000000 1.000000 0.000000 0.000000 1.000000 0.000000 0.000000 0.000000 0.000000 1.000000 -29.96667 0.000000 0.000000 -13.86667 0.000000 0.7833334 0.000000 0.000000 -25.43333 0.000000 0.000000 0.8954023 29.96667 0.000000 0.000000 13.86667 0.000000 0.7833334 0.000000 0.000000 -25.43333 3.466667 10.00000 0.000000 12.13333 -5.000000 0.000000 -15.46667 6.066667 0.000000 -26.86667 -10.00000 0.000000 22.53333 5.000000 0.000000 6.633333 0.000000 0.000000 
0.000000 40.48187 7.466667 1.000000 0.000000 0.000000 0.7666667 0.000000 0.000000 -5.533333 0.000000 0.000000 1.000000 0.000000 0.000000 1.000000 0.000000 0.000000 0.000000 0.000000 1.000000 -26.73333 0.000000 0.000000 -14.93333 0.000000 0.7666667 0.000000 0.000000 -27.46667 0.000000 0.000000 0.8873563 26.73333 0.000000 0.000000 14.93333 0.000000 0.7666667 0.000000 0.000000 -27.46667 3.733333 10.00000 0.000000 13.06667 -5.000000 0.000000 -16.73333 6.533333 0.000000 -28.93333 -10.00000 0.000000 24.26667 5.000000 0.000000 7.066667 0.000000 0.000000 
0.000000 40.26425 8.000000 1.000000 0.000000 0.000000 0.7500000 0.000000 0.000000 -6.000000 0.000000 0.000000 1.000000 0.000000 0.000000 1.000000 0.000000 0.000000 0.000000 0.000000 1.000000 -23.50000 0.000000 0.000000 -16.00000 0.000000 0.7500000 0.000000 0.000000 -29.50000 0.000000 0.000000 0.8793104 23.50000 0.000000 0.000000 16.00000 0.000000 0.7500000 0.000000 0.000000 -29.50000 4.000000 10.00000 0.000000 14.00000 -5.000000 0.000000 -18.00000 7.000000 0.000000 -31.00000 -10.00000 0.000000 26.00000 5.000000 0.000000 7.500000 0.000000 0.000000 
0.000000 40.01316 8.615385 1.000000 0.000000 0.000000 0.7307692 0.000000 0.000000 -6.538462 0.000000 0.000000 1.000000 0.000000 0.000000 1.000000 0.000000 0.000000 0.000000 0.000000 1.000000 -19.76923 0.000000 0.000000 -17.23077 0.000000 0.7307692 0.000000 0.000000 -31.84615 0.000000 0.000000 0.8700265 19.76923 0.000000 0.000000 17.23077 0.000000 0.7307692 0.000000 0.000000 -31.84615 4.307693 10.00000 0.000000 15.07692 -5.000000 0.000000 -19.46154 7.538462 0.000000 -31.00000 -10.00000 0.000000 25.00000 5.000000 0.000000 8.000000 0.000000 0.000000 
0.000000 39.76206 9.230769 1.000000 0.000000 0.000000 0.7115384 0.000000 0.000000 -7.076923 0.000000 0.000000 1.000000 0.000000 0.000000 1.000000 0.000000 0.000000 0.000000 0.000000 1.000000 -16.03846 0.000000 0.000000 -18.46154 0.000000 0.7115384 0.000000 0.000000 -34.19231 0.000000 0.000000 0.8607427 16.03846 0.000000 0.000000 18.46154 0.000000 0.7115384 0.000000 0.000000 -34.19231 4.615385 10.00000 0.000000 16.15385 -5.000000 0.000000 -20.92308 8.076923 0.000000 -31.00000 -10.00000 0.000000 24.00000 5.000000 0.000000 8.500000 0.000000 0.000000 
0.000000 39.51096 9.846154 1.000000 0.000000 0.000000 0.6923077 0.000000 0.000000 -7.615385 0.000000 0.000000 1.000000 0.000000 0.000000 1.000000 0.000000 0.000000 0.000000 0.000000 1.000000 -12.30769 0.000000 0.000000 -19.69231 0.000000 0.6923077 0.000000 0.000000 -36.53846 0.000000 0.000000 0.8514589 12.30769 0.000000 0.000000 19.69231 0.000000 0.6923077 0.000000 0.000000 -36.53846 4.923077 10.00000 0.000000 17.23077 -5.000000 0.000000 -22.38461 8.615385 0.000000 -31.00000 -10.00000 0.000000 23.00000 5.000000 0.000000 9.000000 0.000000 0.000000 
0.000000 39.25986 10.46154 1.000000 0.000000 0.000000 0.6730769 0.000000 0.000000 -8.153846 0.000000 0.000000 1.000000 0.000000 0.000000 1.000000 0.000000 0.000000 0.000000 0.000000 1.000000 -8.576923 0.000000 0.000000 -20.92308 0.000000 0.6730769 0.000000 0.000000 -38.88462 0.000000 0.000000 0.8421751 8.576923 0.000000 0.000000 20.92308 0.000000 0.6730769 0.000000 0.000000 -38.88462 5.230769 10.00000 0.000000 18.30769 -5.000000 0.000000 -23.84615 9.153846 0.000000 -31.00000 -10.00000 0.000000 22.00000 5.000000 0.000000 9.500000 0.000000 0.000000 
